<svg width="1200" height="760" viewBox="0 0 1200 760" fill="none" xmlns="http://www.w3.org/2000/svg">
  <rect width="1200" height="760" rx="40" fill="#F8FAFC"/>
  <rect x="44" y="40" width="1112" height="680" rx="28" fill="#FFFFFF"/>
  <rect x="84" y="84" width="1032" height="74" rx="22" fill="#EEF2FF"/>
  <rect x="116" y="108" width="180" height="28" rx="14" fill="#1E293B"/>
  <rect x="892" y="102" width="84" height="40" rx="20" fill="#0284C7"/>
  <rect x="992" y="102" width="92" height="40" rx="20" fill="#E2E8F0"/>
  <rect x="84" y="194" width="242" height="486" rx="24" fill="#F8FAFC" stroke="#E2E8F0" stroke-width="2"/>
  <rect x="356" y="194" width="760" height="486" rx="24" fill="#FFFFFF" stroke="#E2E8F0" stroke-width="2"/>
  <rect x="112" y="228" width="186" height="48" rx="18" fill="url(#a)"/>
  <rect x="112" y="300" width="150" height="18" rx="9" fill="#CBD5E1"/>
  <rect x="112" y="334" width="128" height="18" rx="9" fill="#CBD5E1"/>
  <rect x="112" y="388" width="186" height="88" rx="20" fill="#FFFFFF" stroke="#E2E8F0" stroke-width="2"/>
  <rect x="112" y="498" width="186" height="88" rx="20" fill="#FFFFFF" stroke="#E2E8F0" stroke-width="2"/>
  <rect x="388" y="228" width="220" height="30" rx="15" fill="#0F172A"/>
  <rect x="388" y="278" width="296" height="18" rx="9" fill="#94A3B8"/>
  <rect x="388" y="326" width="696" height="304" rx="22" fill="#F8FAFC" stroke="#E2E8F0" stroke-width="2"/>
  <rect x="420" y="356" width="632" height="42" rx="14" fill="#E0F2FE"/>
  <rect x="420" y="418" width="632" height="42" rx="14" fill="#FFFFFF" stroke="#E2E8F0" stroke-width="2"/>
  <rect x="420" y="480" width="632" height="42" rx="14" fill="#FFFFFF" stroke="#E2E8F0" stroke-width="2"/>
  <rect x="420" y="542" width="632" height="42" rx="14" fill="#FFFFFF" stroke="#E2E8F0" stroke-width="2"/>
  <line x1="578" y1="356" x2="578" y2="584" stroke="#E2E8F0" stroke-width="2"/>
  <line x1="756" y1="356" x2="756" y2="584" stroke="#E2E8F0" stroke-width="2"/>
  <line x1="910" y1="356" x2="910" y2="584" stroke="#E2E8F0" stroke-width="2"/>
  <rect x="388" y="646" width="120" height="18" rx="9" fill="#CBD5E1"/>
  <rect x="938" y="638" width="146" height="34" rx="17" fill="#0F172A"/>
  <defs>
    <linearGradient id="a" x1="112" y1="228" x2="298" y2="276" gradientUnits="userSpaceOnUse">
      <stop stop-color="#60A5FA"/>
      <stop offset="1" stop-color="#F59E0B"/>
    </linearGradient>
  </defs>
</svg>
