<svg width="1200" height="760" viewBox="0 0 1200 760" fill="none" xmlns="http://www.w3.org/2000/svg">
  <rect width="1200" height="760" rx="40" fill="#F8FAFC"/>
  <rect x="44" y="40" width="1112" height="680" rx="28" fill="#0F172A"/>
  <rect x="80" y="84" width="1040" height="64" rx="18" fill="#111C31"/>
  <circle cx="120" cy="116" r="8" fill="#38BDF8"/>
  <circle cx="148" cy="116" r="8" fill="#34D399"/>
  <circle cx="176" cy="116" r="8" fill="#FB923C"/>
  <rect x="214" y="98" width="188" height="36" rx="18" fill="#172554"/>
  <rect x="94" y="190" width="258" height="470" rx="24" fill="#132238"/>
  <rect x="384" y="190" width="700" height="278" rx="24" fill="#132238"/>
  <rect x="384" y="498" width="338" height="162" rx="24" fill="#132238"/>
  <rect x="746" y="498" width="338" height="162" rx="24" fill="#132238"/>
  <rect x="118" y="220" width="210" height="140" rx="20" fill="url(#a)"/>
  <rect x="118" y="384" width="210" height="34" rx="17" fill="#1E3A5F"/>
  <rect x="118" y="434" width="160" height="18" rx="9" fill="#334155"/>
  <rect x="118" y="468" width="190" height="18" rx="9" fill="#334155"/>
  <rect x="118" y="502" width="172" height="18" rx="9" fill="#334155"/>
  <rect x="118" y="548" width="112" height="40" rx="20" fill="#E0F2FE"/>
  <rect x="254" y="548" width="74" height="40" rx="20" fill="#1D4ED8"/>
  <rect x="416" y="222" width="242" height="32" rx="16" fill="#E2E8F0"/>
  <rect x="416" y="274" width="184" height="18" rx="9" fill="#475569"/>
  <rect x="416" y="310" width="620" height="116" rx="22" fill="url(#b)"/>
  <rect x="444" y="340" width="120" height="56" rx="18" fill="#FFFFFF"/>
  <rect x="580" y="340" width="120" height="56" rx="18" fill="#F0FDFA"/>
  <rect x="716" y="340" width="120" height="56" rx="18" fill="#EFF6FF"/>
  <rect x="852" y="340" width="156" height="56" rx="18" fill="#FFF7ED"/>
  <rect x="416" y="530" width="156" height="22" rx="11" fill="#E2E8F0"/>
  <rect x="416" y="572" width="266" height="50" rx="18" fill="#082F49"/>
  <rect x="778" y="530" width="172" height="22" rx="11" fill="#E2E8F0"/>
  <rect x="778" y="572" width="186" height="18" rx="9" fill="#CBD5E1"/>
  <rect x="778" y="606" width="220" height="18" rx="9" fill="#CBD5E1"/>
  <defs>
    <linearGradient id="a" x1="118" y1="220" x2="328" y2="360" gradientUnits="userSpaceOnUse">
      <stop stop-color="#38BDF8"/>
      <stop offset="1" stop-color="#0F766E"/>
    </linearGradient>
    <linearGradient id="b" x1="416" y1="310" x2="1036" y2="426" gradientUnits="userSpaceOnUse">
      <stop stop-color="#E0F2FE"/>
      <stop offset="0.5" stop-color="#ECFEFF"/>
      <stop offset="1" stop-color="#FFF7ED"/>
    </linearGradient>
  </defs>
</svg>
